<svg width="284" height="71" viewBox="0 0 284 71" fill="none" xmlns="http://www.w3.org/2000/svg">
<path fill-rule="evenodd" clip-rule="evenodd" d="M168.965 0.830488C168.965 1.28915 168.59 1.66098 168.128 1.66098C167.666 1.66098 167.292 1.28915 167.292 0.830488C167.292 0.371822 167.666 0 168.128 0C168.59 0 168.965 0.371822 168.965 0.830488ZM168.076 4.39678L168.589 5.62004C169.653 8.15772 170.56 10.0119 171.667 11.628C172.736 13.1886 174.002 14.5439 175.802 16.0772C178.184 15.6586 179.976 15.1704 181.655 14.4469C183.39 13.6998 185.024 12.6928 187.078 11.2205L188.591 10.1357L187.825 11.8326C185.601 16.7579 184.479 19.6218 182.828 25.0599L182.683 25.5394L182.203 25.3927C175.591 23.3692 164.07 21.8124 154.075 25.3855L153.568 25.5665L153.424 25.0481C152.019 19.9749 150.837 17.1004 148.432 11.8346L147.762 10.3677L149.144 11.1982C151.541 12.6382 154.842 13.8699 157.568 14.7455C158.927 15.1817 160.134 15.5266 161 15.7624C161.434 15.8803 161.782 15.9708 162.021 16.0318L162.051 16.0394C162.174 15.8538 162.35 15.5848 162.566 15.2494C163.001 14.5727 163.596 13.6265 164.236 12.5487C165.52 10.3826 166.96 7.7228 167.654 5.65432L168.076 4.39678ZM162.686 16.8898C162.686 16.8898 162.686 16.8899 162.272 16.6098C162.155 17.0959 162.155 17.0959 162.155 17.0959L162.155 17.0958L162.153 17.0954L162.148 17.0942L162.129 17.0896L162.055 17.0715C161.991 17.0556 161.896 17.0319 161.774 17.0008C161.53 16.9387 161.177 16.8468 160.738 16.7273C159.86 16.4885 158.638 16.1394 157.263 15.6976C154.985 14.9661 152.258 13.9727 149.967 12.7961C151.903 17.0903 153.008 19.8878 154.244 24.2674C164.155 20.9061 175.335 22.3393 182.017 24.2931C183.416 19.7278 184.464 16.9509 186.181 13.0606C184.732 14.0286 183.428 14.7722 182.051 15.3653C180.222 16.1536 178.286 16.6671 175.742 17.1026L175.513 17.1418L175.335 16.9922C173.391 15.3555 172.009 13.8978 170.842 12.193C169.858 10.7564 169.036 9.15726 168.157 7.15247C167.36 9.08434 166.159 11.2653 165.096 13.0588C164.449 14.1494 163.847 15.1062 163.407 15.7904C163.187 16.1326 163.007 16.4068 162.882 16.5958C162.82 16.6903 162.771 16.7635 162.738 16.8132L162.7 16.87L162.69 16.8846L162.687 16.8885L162.686 16.8895L162.686 16.8898ZM162.272 16.6098L162.686 16.8899L162.492 17.1769L162.155 17.0959L162.272 16.6098ZM146.377 8.30487C146.839 8.30487 147.214 7.93304 147.214 7.47438C147.214 7.01571 146.839 6.64389 146.377 6.64389C145.915 6.64389 145.541 7.01571 145.541 7.47438C145.541 7.93304 145.915 8.30487 146.377 8.30487ZM190.716 7.47438C190.716 7.93304 190.341 8.30487 189.879 8.30487C189.417 8.30487 189.042 7.93304 189.042 7.47438C189.042 7.01571 189.417 6.64389 189.879 6.64389C190.341 6.64389 190.716 7.01571 190.716 7.47438ZM6.36 34.24C4.2 34.24 2.08 34.32 0 34.48V62.92C2.50667 63.1333 5.13334 63.24 7.88 63.24C10.6533 63.24 12.8267 62.5867 14.4 61.28C16 59.9733 16.8 58.0667 16.8 55.56C16.8 53.7733 16.16 52.16 14.88 50.72C13.6 49.28 12.0133 48.2667 10.12 47.68C11.2933 47.0133 12.2933 46.0267 13.12 44.72C13.9733 43.4133 14.4 42 14.4 40.48C14.4 38.4533 13.6 36.9067 12 35.84C10.4267 34.7733 8.54667 34.24 6.36 34.24ZM12.92 59.92C11.6667 60.9867 10.0667 61.52 8.12 61.52C5.16 61.52 3.09333 61.4533 1.92 61.32V48.56H4.56C5.86667 48.56 7.01334 48.6667 8 48.88C10.1067 49.3333 11.76 50.1733 12.96 51.4C14.1867 52.6267 14.8 54.08 14.8 55.76C14.8 57.44 14.1733 58.8267 12.92 59.92ZM10.64 37.04C11.8667 37.84 12.48 38.9733 12.48 40.44C12.48 41.88 12.0533 43.2 11.2 44.4C10.3467 45.6 9.32 46.52 8.12 47.16C6.25333 47 4.84 46.92 3.88 46.92H1.92V36C3.52 35.8933 5.06667 35.84 6.56 35.84C8.08 35.84 9.44 36.24 10.64 37.04ZM24.6763 37.04V63H37.1963V61.32H26.5163V49.64H35.7963V48.08H26.5163V38.64H36.7963V37.04H24.6763ZM42.1191 63L45.8391 54H57.3591L61.1191 63H63.1591L52.1991 36.88H51.1191L40.2391 63H42.1191ZM50.4791 42.84C50.7991 42.04 51.1591 41.04 51.5591 39.84C51.7457 40.3733 52.1457 41.3867 52.7591 42.88L56.7191 52.44H46.4791L50.4791 42.84ZM78.4756 63.4C82.0756 63.4 84.7556 62.3733 86.5156 60.32C88.2756 58.2667 89.1556 55.4267 89.1556 51.8V37.04H87.3156V51.8C87.3156 58.44 84.369 61.76 78.4756 61.76C72.5823 61.76 69.6356 58.44 69.6356 51.8V37.04H67.7956V51.8C67.7956 55.4267 68.6756 58.2667 70.4356 60.32C72.1956 62.3733 74.8756 63.4 78.4756 63.4ZM94.3444 38.68H103.144V63H104.944V38.68H113.744V37.04H94.3444V38.68ZM124.648 63H126.448V53.8L136.248 37.04H134.168L126.608 49.96C126.102 50.84 125.768 51.4533 125.608 51.8C125.528 51.72 125.195 51.0933 124.608 49.92L117.048 37.04H114.848L124.648 53.72V63ZM154.726 48.68C154.726 52.84 156.046 56.3467 158.686 59.2C161.353 62.0533 164.713 63.48 168.766 63.48C171.246 63.48 173.54 62.8933 175.646 61.72C177.593 62.84 178.993 63.64 179.846 64.12C180.726 64.6267 182.166 65.3733 184.166 66.36C186.166 67.3467 187.833 68.0667 189.166 68.52C190.526 68.9733 192.14 69.4 194.006 69.8C195.9 70.2267 197.686 70.44 199.366 70.44C201.046 70.44 202.953 70.1867 205.086 69.68C207.246 69.1733 208.846 68.6533 209.886 68.12L209.406 67C208.5 67.4533 207.006 67.8933 204.926 68.32C202.846 68.7467 200.993 68.96 199.366 68.96C196.54 68.96 193.366 68.36 189.846 67.16C186.886 66.1467 182.673 63.9867 177.206 60.68C178.966 59.32 180.34 57.6 181.326 55.52C182.34 53.4133 182.846 51.1333 182.846 48.68C182.846 44.52 181.513 41.0267 178.846 38.2C176.18 35.3467 172.82 33.92 168.766 33.92C164.713 33.92 161.353 35.3467 158.686 38.2C156.046 41.0267 154.726 44.52 154.726 48.68ZM156.806 48.68C156.806 45 157.913 41.92 160.126 39.44C162.34 36.9333 165.22 35.68 168.766 35.68C172.313 35.68 175.193 36.9333 177.406 39.44C179.646 41.92 180.766 45 180.766 48.68C180.766 50.9733 180.3 53.08 179.366 55C178.46 56.92 177.18 58.4667 175.526 59.64C173.633 58.36 171.953 57.3733 170.486 56.68C169.046 55.9867 167.606 55.64 166.166 55.64C164.726 55.64 163.513 55.9733 162.526 56.64L163.166 57.8C163.913 57.3733 164.886 57.16 166.086 57.16C168.006 57.16 170.633 58.2933 173.966 60.56C172.42 61.3333 170.686 61.72 168.766 61.72C165.246 61.72 162.366 60.4667 160.126 57.96C157.913 55.4533 156.806 52.36 156.806 48.68ZM201.679 63.4C205.279 63.4 207.959 62.3733 209.719 60.32C211.479 58.2667 212.359 55.4267 212.359 51.8V37.04H210.519V51.8C210.519 58.44 207.572 61.76 201.679 61.76C195.785 61.76 192.839 58.44 192.839 51.8V37.04H190.999V51.8C190.999 55.4267 191.879 58.2667 193.639 60.32C195.399 62.3733 198.079 63.4 201.679 63.4ZM221.708 37.04V63H234.228V61.32H223.548V49.64H232.827V48.08H223.548V38.64H233.827V37.04H221.708ZM241.59 37.04V63H254.11V61.32H243.43V49.64H252.71V48.08H243.43V38.64H253.71V37.04H241.59ZM261.473 36.88V63H263.313V44.32C263.313 42.3467 263.286 41.0933 263.233 40.56L265.433 43.24L282.793 63.16H283.673V37.04H281.833V55.84C281.833 57.7067 281.86 58.96 281.913 59.6C281.886 59.5733 281.606 59.2267 281.073 58.56C280.566 57.8667 280.006 57.1733 279.393 56.48L262.353 36.88H261.473Z" fill="white"/>
</svg>
