<svg width="284" height="71" viewBox="0 0 284 71" fill="none" xmlns="http://www.w3.org/2000/svg">
<path fill-rule="evenodd" clip-rule="evenodd" d="M169.245 0.83049C169.245 1.28915 168.87 1.66097 168.408 1.66097C167.946 1.66097 167.572 1.28915 167.572 0.83049C167.572 0.371819 167.946 0 168.408 0C168.87 0 169.245 0.371819 169.245 0.83049ZM168.356 4.39678L168.869 5.62004C169.933 8.15771 170.84 10.0119 171.947 11.628C173.016 13.1886 174.282 14.5439 176.082 16.0772C178.464 15.6586 180.256 15.1704 181.936 14.4469C183.67 13.6998 185.304 12.6928 187.358 11.2205L188.871 10.1357L188.105 11.8326C185.881 16.7579 184.759 19.6218 183.108 25.0599L182.963 25.5394L182.484 25.3927C175.871 23.3692 164.35 21.8124 154.355 25.3855L153.848 25.5665L153.704 25.0481C152.299 19.9749 151.117 17.1004 148.712 11.8346L148.042 10.3677L149.424 11.1982C151.821 12.6382 155.122 13.8699 157.848 14.7455C159.207 15.1817 160.414 15.5266 161.28 15.7624C161.547 15.835 161.781 15.8972 161.978 15.9485C162.101 15.9805 162.209 16.0083 162.301 16.0318L162.331 16.0395C162.454 15.8538 162.63 15.5848 162.846 15.2494C163.281 14.5727 163.876 13.6265 164.516 12.5487C165.8 10.3826 167.24 7.7228 167.934 5.65431L168.356 4.39678ZM162.966 16.8898C162.966 16.8898 162.966 16.8899 162.552 16.6098C162.435 17.0959 162.435 17.0959 162.435 17.0959L162.435 17.0958L162.433 17.0954L162.428 17.0942L162.409 17.0896L162.336 17.0715C162.271 17.0556 162.176 17.0319 162.054 17.0008C161.81 16.9387 161.457 16.8468 161.018 16.7273C160.14 16.4885 158.919 16.1394 157.543 15.6976C155.265 14.966 152.538 13.9727 150.247 12.7961C152.183 17.0903 153.288 19.8878 154.525 24.2674C164.435 20.9061 175.615 22.3393 182.297 24.2931C183.696 19.7278 184.744 16.9509 186.461 13.0606C185.012 14.0286 183.708 14.7722 182.331 15.3653C180.502 16.1536 178.566 16.6671 176.022 17.1026L175.793 17.1418L175.615 16.9922C173.671 15.3555 172.289 13.8978 171.122 12.193C170.138 10.7564 169.316 9.15726 168.438 7.15247C167.64 9.08434 166.439 11.2653 165.376 13.0588C164.729 14.1494 164.127 15.1062 163.687 15.7904C163.467 16.1326 163.287 16.4068 163.162 16.5958C163.1 16.6903 163.051 16.7635 163.018 16.8132L162.98 16.87L162.97 16.8846L162.967 16.8885L162.966 16.8895L162.966 16.8898ZM162.552 16.6098L162.966 16.8899L162.772 17.1769L162.435 17.0959L162.552 16.6098ZM146.657 8.30486C147.119 8.30486 147.494 7.93304 147.494 7.47438C147.494 7.01571 147.119 6.64389 146.657 6.64389C146.195 6.64389 145.821 7.01571 145.821 7.47438C145.821 7.93304 146.195 8.30486 146.657 8.30486ZM190.996 7.47438C190.996 7.93304 190.621 8.30486 190.159 8.30486C189.697 8.30486 189.323 7.93304 189.323 7.47438C189.323 7.01571 189.697 6.64389 190.159 6.64389C190.621 6.64389 190.996 7.01571 190.996 7.47438ZM6.64005 34.24C4.48004 34.24 2.36003 34.32 0.280029 34.48V62.92C2.7867 63.1333 5.41336 63.24 8.16003 63.24C10.9334 63.24 13.1067 62.5867 14.68 61.28C16.28 59.9733 17.08 58.0667 17.08 55.56C17.08 53.7733 16.44 52.16 15.16 50.72C13.88 49.28 12.2934 48.2667 10.4 47.68C11.5734 47.0133 12.5734 46.0267 13.4 44.72C14.2534 43.4133 14.68 42 14.68 40.48C14.68 38.4533 13.88 36.9067 12.28 35.84C10.7067 34.7733 8.82669 34.24 6.64005 34.24ZM13.2 59.92C11.9467 60.9867 10.3467 61.52 8.40002 61.52C5.44003 61.52 3.37337 61.4533 2.20003 61.32V48.56H4.84003C6.1467 48.56 7.29337 48.6667 8.28003 48.88C10.3867 49.3333 12.04 50.1733 13.24 51.4C14.4667 52.6267 15.08 54.08 15.08 55.76C15.08 57.44 14.4534 58.8267 13.2 59.92ZM10.92 37.04C12.1467 37.84 12.76 38.9733 12.76 40.44C12.76 41.88 12.3334 43.2 11.48 44.4C10.6267 45.6 9.60004 46.52 8.40002 47.16C6.53336 47 5.12003 46.92 4.16003 46.92H2.20003V36C3.80003 35.8933 5.34671 35.84 6.84003 35.84C8.36002 35.84 9.72003 36.24 10.92 37.04ZM24.9563 37.04V63H37.4763V61.32H26.7963V49.64H36.0763V48.08H26.7963V38.64H37.0763V37.04H24.9563ZM42.3991 63L46.1191 54H57.6391L61.3991 63H63.4391L52.4791 36.88H51.3991L40.5191 63H42.3991ZM50.7591 42.84C51.0791 42.04 51.4391 41.04 51.8391 39.84C52.0258 40.3733 52.4258 41.3867 53.0391 42.88L56.9991 52.44H46.7591L50.7591 42.84ZM78.7556 63.4C82.3557 63.4 85.0356 62.3733 86.7957 60.32C88.5557 58.2667 89.4357 55.4267 89.4357 51.8V37.04H87.5957V51.8C87.5957 58.44 84.649 61.76 78.7556 61.76C72.8623 61.76 69.9156 58.44 69.9156 51.8V37.04H68.0757V51.8C68.0757 55.4267 68.9557 58.2667 70.7157 60.32C72.4756 62.3733 75.1557 63.4 78.7556 63.4ZM94.6244 38.68H103.424V63H105.224V38.68H114.024V37.04H94.6244V38.68ZM124.928 63H126.728V53.8L136.528 37.04H134.448L126.888 49.96C126.382 50.84 126.048 51.4533 125.888 51.8C125.808 51.72 125.475 51.0933 124.888 49.92L117.328 37.04H115.128L124.928 53.72V63ZM155.006 48.68C155.006 52.84 156.326 56.3467 158.966 59.2C161.633 62.0533 164.993 63.48 169.046 63.48C171.526 63.48 173.82 62.8933 175.926 61.72C177.873 62.84 179.273 63.64 180.126 64.12C181.006 64.6267 182.446 65.3733 184.446 66.36C186.446 67.3467 188.113 68.0667 189.446 68.52C190.806 68.9733 192.42 69.4 194.286 69.8C196.18 70.2267 197.966 70.44 199.646 70.44C201.326 70.44 203.233 70.1867 205.366 69.68C207.526 69.1733 209.126 68.6533 210.166 68.12L209.686 67C208.78 67.4533 207.286 67.8933 205.206 68.32C203.126 68.7467 201.273 68.96 199.646 68.96C196.82 68.96 193.646 68.36 190.126 67.16C187.166 66.1467 182.953 63.9867 177.486 60.68C179.246 59.32 180.62 57.6 181.606 55.52C182.62 53.4133 183.126 51.1333 183.126 48.68C183.126 44.52 181.793 41.0267 179.126 38.2C176.46 35.3467 173.1 33.92 169.046 33.92C164.993 33.92 161.633 35.3467 158.966 38.2C156.326 41.0267 155.006 44.52 155.006 48.68ZM157.086 48.68C157.086 45 158.193 41.92 160.406 39.44C162.62 36.9333 165.5 35.68 169.046 35.68C172.593 35.68 175.473 36.9333 177.686 39.44C179.926 41.92 181.046 45 181.046 48.68C181.046 50.9733 180.58 53.08 179.646 55C178.74 56.92 177.46 58.4667 175.806 59.64C173.913 58.36 172.233 57.3733 170.766 56.68C169.326 55.9867 167.886 55.64 166.446 55.64C165.006 55.64 163.793 55.9733 162.806 56.64L163.446 57.8C164.193 57.3733 165.166 57.16 166.366 57.16C168.286 57.16 170.913 58.2933 174.246 60.56C172.7 61.3333 170.966 61.72 169.046 61.72C165.526 61.72 162.646 60.4667 160.406 57.96C158.193 55.4533 157.086 52.36 157.086 48.68ZM201.959 63.4C205.559 63.4 208.239 62.3733 209.999 60.32C211.759 58.2667 212.639 55.4267 212.639 51.8V37.04H210.799V51.8C210.799 58.44 207.852 61.76 201.959 61.76C196.065 61.76 193.119 58.44 193.119 51.8V37.04H191.279V51.8C191.279 55.4267 192.159 58.2667 193.919 60.32C195.679 62.3733 198.359 63.4 201.959 63.4ZM221.988 37.04V63H234.508V61.32H223.828V49.64H233.108V48.08H223.828V38.64H234.108V37.04H221.988ZM241.87 37.04V63H254.39V61.32H243.71V49.64H252.99V48.08H243.71V38.64H253.99V37.04H241.87ZM261.753 36.88V63H263.593V44.32C263.593 42.3467 263.566 41.0933 263.513 40.56L265.713 43.24L283.073 63.16H283.953V37.04H282.113V55.84C282.113 57.7067 282.14 58.96 282.193 59.6C282.166 59.5733 281.887 59.2267 281.353 58.56C280.846 57.8667 280.286 57.1733 279.673 56.48L262.633 36.88H261.753Z" fill="black"/>
</svg>
